<?xml version="1.0" encoding="UTF-8"?>
<!DOCTYPE svg PUBLIC "-//W3C//DTD SVG 1.1//EN" "http://www.w3.org/Graphics/SVG/1.1/DTD/svg11.dtd">
<svg xmlns="http://www.w3.org/2000/svg" version="1.1" width="280px" height="280px" style="shape-rendering:geometricPrecision; text-rendering:geometricPrecision; image-rendering:optimizeQuality; fill-rule:evenodd; clip-rule:evenodd" xmlns:xlink="http://www.w3.org/1999/xlink">
<defs>
  <mask id="cMask">
    <!-- 白い部分が見える、黒い部分が透明になる -->
    <rect width="280" height="280" fill="white"/>
    <!-- 中央の白い部分を黒で塗りつぶして透明にする -->
    <path fill="black" d="M47.5,46 C109.833,45.3333 172.167,45.3333 234.5,46 C235,46.5 235.5,47 236,47.5 C236.831,107.404 236.664,167.237 235.5,227 C173.168,227.5 110.834,227.667 48.5,227.5 C47.5084,227.672 46.8417,227.338 46.5,226.5 C45.5042,167.238 45.1708,107.905 45.5,48.5 C45.5,48.1667 45.5,47.8333 45.5,47.5 C46.2891,47.2172 46.9558,46.7172 47.5,46 Z"/>
    <!-- Cの文字部分は白で塗りつぶして見えるようにする -->
    <path fill="white" d="M 127.5,64.5 C 151.5,65.8333 175.5,65.8333 199.5,64.5 C 200.226,70.4588 198.226,75.6255 193.5,80 C 172.167,80.3333 150.833,80.6667 129.5,81 C 118.599,84.9015 111.432,92.4015 108,103.5 C 104.709,125.113 113.542,138.613 134.5,144 C 138.795,144.912 143.128,145.579 147.5,146 C 152.155,148.897 153.655,153.063 152,158.5 C 132.213,164.138 115.213,159.138 101,143.5 C 86.454,121.359 87.1207,99.6927 103,78.5 C 109.738,71.3795 117.905,66.7128 127.5,64.5 Z"/>
    <path fill="white" d="M 140.5,99.5 C 167.829,98.0114 186.329,110.011 196,135.5 C 202.289,163.743 192.789,184.576 167.5,198 C 163.877,199.156 160.211,200.156 156.5,201 C 130.167,201.667 103.833,201.667 77.5,201 C 77.2948,195.311 79.2948,190.311 83.5,186 C 107.167,185.667 130.833,185.333 154.5,185 C 171.341,180.022 180.341,168.688 181.5,151 C 180.34,131.175 170.006,119.508 150.5,116 C 145.833,115.667 141.167,115.333 136.5,115 C 133.015,108.532 134.348,103.365 140.5,99.5 Z"/>
  </mask>
</defs>

<!-- 外枠の角丸四角形にマスクを適用 -->
<rect x="29" y="30" width="224" height="214" rx="15" ry="15" fill="#1DB584" mask="url(#cMask)"/>
</svg>